<svg id="e3bs6z307dwg1" xmlns="http://www.w3.org/2000/svg" xmlns:xlink="http://www.w3.org/1999/xlink" viewBox="0 0 280 280" shape-rendering="geometricPrecision" text-rendering="geometricPrecision"><style><![CDATA[#e3bs6z307dwg10_tr {animation: e3bs6z307dwg10_tr__tr 10000ms linear infinite normal forwards}@keyframes e3bs6z307dwg10_tr__tr { 0% {transform: translate(140px,140px) rotate(0deg)} 100% {transform: translate(140px,140px) rotate(360deg)} }]]></style><defs><clipPath id="e3bs6z307dwg2"><rect id="e3bs6z307dwg3" width="141" height="161" rx="0" ry="0" transform="matrix(1 0 0 1 58 48)" fill="rgb(255,255,255)" stroke="none" stroke-width="1"/></clipPath></defs><g id="e3bs6z307dwg4" transform="matrix(1 0 0 1 11.50000000000000 11.50000000000000)" clip-path="url(#e3bs6z307dwg2)"><path id="e3bs6z307dwg5" d="M128.502000,125.791000L95.560900,48L128.502000,48L128.502000,125.791000Z" fill="rgb(67,142,204)" stroke="none" stroke-width="1"/><path id="e3bs6z307dwg6" d="M94.929400,71.479600L58,71.479600L128.502000,209L128.502000,148.627000L94.929400,71.479600Z" fill="rgb(131,193,237)" stroke="none" stroke-width="1"/><path id="e3bs6z307dwg7" d="M127.970000,48.099800L128.502000,125.791000L161.442000,48L128.502000,48" fill="rgb(49,106,176)" stroke="none" stroke-width="1"/><path id="e3bs6z307dwg8" d="M162.071000,71.479600L199,71.479600L128.502000,209L128.502000,148.627000L162.071000,71.479600Z" fill="rgb(176,219,247)" stroke="none" stroke-width="1"/></g><path id="e3bs6z307dwg9" d="M128,253.500000C197.312000,253.500000,253.500000,197.312000,253.500000,128C253.500000,58.688300,197.312000,2.500000,128,2.500000C58.688300,2.500000,2.500000,58.688300,2.500000,128C2.500000,197.312000,58.688300,253.500000,128,253.500000ZM128,256C198.692000,256,256,198.692000,256,128C256,57.307600,198.692000,0,128,0C57.307600,0,0,57.307600,0,128C0,198.692000,57.307600,256,128,256Z" transform="matrix(1 0 0 1 12 12)" clip-rule="evenodd" fill="rgb(176,219,247)" fill-rule="evenodd" stroke="none" stroke-width="9"/><g id="e3bs6z307dwg10_tr" transform="translate(140,140) rotate(0)"><g id="e3bs6z307dwg10" transform="translate(-124,-126)"><circle id="e3bs6z307dwg11" r="7.500000" transform="matrix(1 0 0 1 181.50000000000000 13.50000000000000)" fill="rgb(67,142,204)" stroke="none" stroke-width="1"/><circle id="e3bs6z307dwg12" r="7.500000" transform="matrix(1 0 0 1 66.50000000000000 238.50000000000000)" fill="rgb(67,142,204)" stroke="none" stroke-width="1"/></g></g></svg>